<svg width="16" height="16" viewBox="0 0 16 16" fill="none" xmlns="http://www.w3.org/2000/svg">
<g clip-path="url(#clip0_98_3363)">
<path fill-rule="evenodd" clip-rule="evenodd" d="M14.9922 5.85285L6.99011 13.7661C5.6642 15.0774 3.51432 15.0774 2.18842 13.7661C0.862518 12.4554 0.862518 10.3297 2.18842 9.01838L9.39066 1.89594C10.2742 1.02194 11.7075 1.02194 12.5916 1.89594C13.4751 2.76995 13.4751 4.18746 12.5916 5.06091L5.38934 12.1833C4.94756 12.6206 4.23094 12.6206 3.7886 12.1833C3.34682 11.7466 3.34682 11.0379 3.7886 10.6006L10.191 4.27009L9.39066 3.4787L2.98878 9.80975C2.10466 10.6832 2.10466 12.1007 2.98878 12.9753C3.87234 13.8487 5.3056 13.8487 6.18972 12.9747L13.3914 5.85285C14.7173 4.54212 14.7179 2.41529 13.392 1.10456C12.0655 -0.206728 9.91619 -0.206728 8.59028 1.10456L0.987849 8.62212L1.01596 8.64966C-0.365584 10.4055 -0.243624 12.9438 1.38804 14.5575C3.02026 16.1712 5.58663 16.292 7.36218 14.9256L7.38973 14.9532L15.7925 6.64423L14.9922 5.85285Z" fill="#00C568"/>
</g>
<defs>
<clipPath id="clip0_98_3363">
<rect width="16" height="16" fill="white"/>
</clipPath>
</defs>
</svg>
