<svg width="203" height="150" viewBox="0 0 203 150" fill="none" xmlns="http://www.w3.org/2000/svg">
<path d="M194.029 57.7701L90.5486 62.8781C84.5202 63.4395 78.4642 62.1579 73.1802 59.2035L7.48926 22.4741C1.61389 19.1896 3.49718 10.2885 10.1997 9.66498L112.673 0.128869C118.701 -0.432553 124.757 0.849051 130.041 3.80457L195.732 40.534C201.607 43.8174 200.731 57.1465 194.029 57.7701Z" fill="#02F080"/>
<path d="M193.022 57.9377L90.5486 67.4738C84.5202 68.0352 78.4642 66.7536 73.1802 63.7993L7.48926 27.0698C1.61389 23.7853 3.49718 14.8842 10.1997 14.2607L112.673 4.72457C118.701 4.16315 124.757 5.44476 130.041 8.40027L195.732 45.1297C201.607 48.4131 199.723 57.3141 193.022 57.9377Z" fill="#05D473"/>
<path d="M147.142 68.7924C142.68 52.0349 72.5962 41.1964 53.7334 56.9956C54.9713 47.1949 56.2092 37.3942 57.4471 27.5923C58.5124 19.1319 88.9511 18.5578 105.214 20.5481C121.746 22.5706 151.818 31.3393 150.856 39.3891C149.617 49.1909 148.38 58.9917 147.142 68.7924Z" fill="#00C568"/>
<path d="M147.142 68.7927C146.167 76.5192 124.466 80.1419 98.6712 76.8839C72.8769 73.6258 52.7566 64.7224 53.7333 56.996C54.7089 49.2695 76.4099 45.6467 102.204 48.9048C127.999 52.1629 148.118 61.0663 147.142 68.7927Z" fill="#00AC5B"/>
<path d="M144.181 68.9467C143.335 75.64 123.136 78.6025 99.0655 75.5618C74.9945 72.5223 56.1662 64.6313 57.0118 57.938C57.8574 51.2447 78.0559 48.2822 102.127 51.3229C126.198 54.3624 145.026 62.2533 144.181 68.9467Z" fill="#008748"/>
<mask id="mask0_98_3236" style="mask-type:luminance" maskUnits="userSpaceOnUse" x="0" y="5" width="21" height="59">
<path d="M9.98427 63.4643C7.91575 63.4643 6.09803 61.9595 5.76785 59.8518C5.74254 59.6885 3.17358 43.2853 0.984261 27.0696C-0.314602 17.4426 0.863464 11.4315 4.69448 8.15272C8.88328 4.56676 14.5021 5.67925 18.363 6.82741C19.4099 7.13918 20.2486 7.81564 20.7801 8.67618C18.2974 8.90742 15.174 9.19849 15.174 9.19849C15.174 9.19849 11.6386 9.97619 9.84966 13.8693C9.04664 15.6169 8.23442 16.8835 9.45506 25.9249C11.6306 42.0474 14.1869 58.3631 14.2122 58.5265C14.578 60.8585 12.9846 63.0455 10.6527 63.4113C10.4272 63.447 10.204 63.4643 9.98427 63.4643Z" fill="white"/>
</mask>
<g mask="url(#mask0_98_3236)">
<path d="M9.98427 63.4643C7.91575 63.4643 6.09803 61.9595 5.76785 59.8518C5.74254 59.6885 3.17358 43.2853 0.984261 27.0696C-0.314602 17.4426 0.863464 11.4315 4.69448 8.15272C8.88328 4.56676 14.5021 5.67925 18.363 6.82741C19.4099 7.13918 20.2486 7.81564 20.7801 8.67618C18.2974 8.90742 15.174 9.19849 15.174 9.19849C15.174 9.19849 11.6386 9.97619 9.84966 13.8693C9.04664 15.6169 8.23442 16.8835 9.45506 25.9249C11.6306 42.0474 14.1869 58.3631 14.2122 58.5265C14.578 60.8585 12.9846 63.0455 10.6527 63.4113C10.4272 63.447 10.204 63.4643 9.98427 63.4643Z" fill="url(#paint0_linear_98_3236)"/>
</g>
<mask id="mask1_98_3236" style="mask-type:luminance" maskUnits="userSpaceOnUse" x="0" y="5" width="21" height="59">
<path d="M9.98427 63.4643C7.91575 63.4643 6.09803 61.9595 5.76785 59.8518C5.74254 59.6885 3.17358 43.2853 0.984261 27.0696C-0.314602 17.4426 0.863464 11.4315 4.69448 8.15272C8.88328 4.56676 14.5021 5.67925 18.363 6.82741C19.4099 7.13918 20.2486 7.81564 20.7801 8.67618C18.2974 8.90742 15.174 9.19849 15.174 9.19849C15.174 9.19849 11.6386 9.97619 9.84966 13.8693C9.04664 15.6169 8.23442 16.8835 9.45506 25.9249C11.6306 42.0474 14.1869 58.3631 14.2122 58.5265C14.578 60.8585 12.9846 63.0455 10.6527 63.4113C10.4272 63.447 10.204 63.4643 9.98427 63.4643Z" fill="white"/>
</mask>
<g mask="url(#mask1_98_3236)">
<path d="M25.2634 12.0917C25.4475 14.2326 25.0817 16.5163 24.2833 18.8149C22.7301 23.2718 20.2406 28.6547 15.6134 32.8067C14.5055 33.7961 13.2285 34.7291 11.7985 35.3389C6.82856 37.5236 1.27877 35.5287 -1.49037 32.8689C-4.58854 30.0019 -6.22334 25.6601 -6.44192 21.2113C-6.7583 14.9045 -4.52527 2.12872 3.19773 0.302953C6.5329 -0.513869 10.9357 0.480121 14.1754 1.24287C18.5977 2.34156 22.087 4.41698 23.8541 7.50019C24.6721 8.92906 25.1242 10.4718 25.2634 12.0917Z" fill="url(#paint1_radial_98_3236)"/>
</g>
<mask id="mask2_98_3236" style="mask-type:luminance" maskUnits="userSpaceOnUse" x="0" y="5" width="21" height="59">
<path d="M9.98427 63.4643C7.91575 63.4643 6.09803 61.9595 5.76785 59.8518C5.74254 59.6885 3.17358 43.2853 0.984261 27.0696C-0.314602 17.4426 0.863464 11.4315 4.69448 8.15272C8.88328 4.56676 14.5021 5.67925 18.363 6.82741C19.4099 7.13918 20.2486 7.81564 20.7801 8.67618C18.2974 8.90742 15.174 9.19849 15.174 9.19849C15.174 9.19849 11.6386 9.97619 9.84966 13.8693C9.04664 15.6169 8.23442 16.8835 9.45506 25.9249C11.6306 42.0474 14.1869 58.3631 14.2122 58.5265C14.578 60.8585 12.9846 63.0455 10.6527 63.4113C10.4272 63.447 10.204 63.4643 9.98427 63.4643Z" fill="white"/>
</mask>
<g mask="url(#mask2_98_3236)">
<path d="M9.77825 -7.09373C20.0058 -0.862875 26.2735 12.7516 18.0719 21.8839C10.0302 30.9253 -6.66404 32.0263 -13.6312 25.9036C-20.7571 19.7682 -17.9673 7.38358 -13.1653 -1.88793C-8.22866 -11.0317 -0.591946 -13.3568 9.77825 -7.09373Z" fill="url(#paint2_radial_98_3236)"/>
</g>
<mask id="mask3_98_3236" style="mask-type:luminance" maskUnits="userSpaceOnUse" x="3" y="63" width="27" height="41">
<path d="M3.97199 83.1826C4.58864 91.4199 7.5338 103.176 7.5338 103.176C7.5338 103.176 10.2696 103.597 12.0585 103.176C13.8475 102.755 14.6896 102.23 14.6896 102.23L15.2154 103.364C15.2154 103.364 17.109 103.176 19.0038 102.861C20.8986 102.546 24.5812 100.125 24.5812 100.125L23.8449 98.5469C23.8449 98.5469 26.5807 97.2837 27.6334 96.8638C28.6861 96.4427 29.2118 95.7064 29.2118 95.7064C29.2118 95.7064 27.1778 86.1301 25.283 82.3416C23.3894 78.5532 18.179 68.2566 16.5925 65.7762C15.006 63.2947 12.5072 63.2153 10.6527 63.4132C8.79815 63.6111 5.92546 64.9007 5.04652 68.1496C4.16642 71.3973 3.35765 74.9753 3.97199 83.1826Z" fill="white"/>
</mask>
<g mask="url(#mask3_98_3236)">
<path d="M3.97199 83.1826C4.58864 91.4199 7.5338 103.176 7.5338 103.176C7.5338 103.176 10.2696 103.597 12.0585 103.176C13.8475 102.755 14.6896 102.23 14.6896 102.23L15.2154 103.364C15.2154 103.364 17.109 103.176 19.0038 102.861C20.8986 102.546 24.5812 100.125 24.5812 100.125L23.8449 98.5469C23.8449 98.5469 26.5807 97.2837 27.6334 96.8638C28.6861 96.4427 29.2118 95.7064 29.2118 95.7064C29.2118 95.7064 28.3697 86.0254 26.476 82.2369C24.5824 78.4485 18.179 68.2578 16.5925 65.7762C15.006 63.2947 12.5072 63.2153 10.6527 63.4132C8.79815 63.6111 5.92546 64.9007 5.04652 68.1496C4.16642 71.3973 3.35765 74.9753 3.97199 83.1826Z" fill="url(#paint3_radial_98_3236)"/>
</g>
<mask id="mask4_98_3236" style="mask-type:luminance" maskUnits="userSpaceOnUse" x="3" y="63" width="27" height="41">
<path d="M3.97199 83.1826C4.58864 91.4199 7.5338 103.176 7.5338 103.176C7.5338 103.176 10.2696 103.597 12.0585 103.176C13.8475 102.755 14.6896 102.23 14.6896 102.23L15.2154 103.364C15.2154 103.364 17.109 103.176 19.0038 102.861C20.8986 102.546 24.5812 100.125 24.5812 100.125L23.8449 98.5469C23.8449 98.5469 26.5807 97.2837 27.6334 96.8638C28.6861 96.4427 29.2118 95.7064 29.2118 95.7064C29.2118 95.7064 27.1778 86.1301 25.283 82.3416C23.3894 78.5532 18.179 68.2566 16.5925 65.7762C15.006 63.2947 12.5072 63.2153 10.6527 63.4132C8.79815 63.6111 5.92546 64.9007 5.04652 68.1496C4.16642 71.3973 3.35765 74.9753 3.97199 83.1826Z" fill="white"/>
</mask>
<g mask="url(#mask4_98_3236)">
<path d="M31.8551 81.3874C33.9421 86.6853 34.2884 92.7815 31.8471 97.8918C31.5376 98.5395 31.1787 99.178 30.6587 99.6727C29.2298 101.034 27.4466 102.153 26.1846 100.521C25.6404 99.8165 24.8431 98.9157 23.8434 98.5476C22.4053 94.009 20.6543 89.5775 19.1231 85.0712C18.1072 82.0834 14.5408 69.968 13.3731 67.0321C12.0351 63.6681 11.1918 62.2174 12.1628 58.4911C12.9785 55.3607 17.7793 64.3526 19.1564 65.4996C23.963 69.5055 28.4475 74.1062 31.143 79.7538C31.3996 80.2864 31.6377 80.8329 31.8551 81.3874Z" fill="url(#paint4_linear_98_3236)"/>
</g>
<mask id="mask5_98_3236" style="mask-type:luminance" maskUnits="userSpaceOnUse" x="3" y="63" width="27" height="41">
<path d="M3.97199 83.1826C4.58864 91.4199 7.5338 103.176 7.5338 103.176C7.5338 103.176 10.2696 103.597 12.0585 103.176C13.8475 102.755 14.6896 102.23 14.6896 102.23L15.2154 103.364C15.2154 103.364 17.109 103.176 19.0038 102.861C20.8986 102.546 24.5812 100.125 24.5812 100.125L23.8449 98.5469C23.8449 98.5469 26.5807 97.2837 27.6334 96.8638C28.6861 96.4427 29.2118 95.7064 29.2118 95.7064C29.2118 95.7064 27.1778 86.1301 25.283 82.3416C23.3894 78.5532 18.179 68.2566 16.5925 65.7762C15.006 63.2947 12.5072 63.2153 10.6527 63.4132C8.79815 63.6111 5.92546 64.9007 5.04652 68.1496C4.16642 71.3973 3.35765 74.9753 3.97199 83.1826Z" fill="white"/>
</mask>
<g mask="url(#mask5_98_3236)">
<path d="M-1.15992 90.0696C-0.2131 96.3361 2.64003 102.413 7.3753 106.002C7.97468 106.457 8.61318 106.875 9.31381 107.066C11.2431 107.592 13.3508 107.691 13.59 105.418C13.6936 104.439 14.0215 103.136 14.6887 102.229C13.5785 97.054 11.915 91.5871 10.9003 86.3916C10.2273 82.9471 8.92956 71.5266 8.67301 67.9176C8.3877 63.8979 9.2908 66.3449 6.53201 63.2813C4.21385 60.7077 2.10967 65.8583 1.52179 67.7243C-0.531776 74.2417 -2.00091 81.157 -1.39577 88.0966C-1.33709 88.7546 -1.25886 89.4127 -1.15992 90.0696Z" fill="url(#paint5_linear_98_3236)"/>
</g>
<path d="M18.3836 55.1035C19.4374 57.0846 19.7055 59.198 19.3431 61.5564C19.0624 63.3845 18.6321 66.271 16.5532 66.8876C15.7962 67.1119 15.0151 66.9693 14.2443 66.9842C13.332 67.0015 12.4162 67.1787 11.5235 67.3547C9.54583 67.7435 7.38873 68.3452 5.36738 68.0047C3.44037 67.6803 2.24504 66.057 2.02531 64.1886C1.71699 61.5748 1.64566 58.6803 2.13 56.0802C2.46363 54.2844 3.83612 52.4793 5.84942 52.8106C7.97316 53.1604 10.87 52.3873 12.6659 51.2104C14.6274 49.9253 16.4152 52.278 17.4541 53.6528C17.813 54.1302 18.1225 54.6134 18.3836 55.1035Z" fill="url(#paint6_radial_98_3236)"/>
<path d="M64.6332 131.694C64.6332 131.694 60.564 115.936 66.8777 104.479C74.7445 90.203 80.8557 86.8034 107.504 92.0185C128.717 96.1704 140.503 112 140.503 112L66.5268 132.777L64.6332 131.694Z" fill="url(#paint7_linear_98_3236)"/>
<path d="M73.5115 122.651L129.181 105.072C129.181 105.072 127.166 122.657 116.553 130.748C88.5042 152.134 83.3261 151.376 78.0386 144.533C74.4607 139.902 74.1995 134.764 73.8233 131.519C73.4034 127.889 73.5115 122.651 73.5115 122.651Z" fill="url(#paint8_linear_98_3236)"/>
<path d="M77.4609 91.8017C77.4609 91.8017 79.312 90.9239 84.6628 91.3208C93.5017 91.9777 97.9655 100.865 100.377 115.454C103.056 131.659 97.7458 140.744 94.0632 144.427C90.1343 148.356 85.4002 149.002 85.4002 149.002C85.4002 149.002 91.2411 148.498 97.2787 146.322C124.13 136.641 136.758 124.644 153.595 117.698C170.431 110.753 172.325 112.144 187.268 110.461C189.777 110.178 192.32 109.49 192.32 109.49C192.32 109.49 204.316 102.545 202.843 85.2867C201.371 68.0287 188.742 61.2939 188.742 61.2939C188.742 61.2939 187.714 61.86 184.533 63.0047C167.064 69.2919 154.016 80.0256 142.861 83.6036C131.706 87.1815 110.242 86.7903 90.4553 88.6552C80.7742 89.5675 77.4609 91.8017 77.4609 91.8017Z" fill="url(#paint9_radial_98_3236)"/>
<path d="M78.0381 91.8132C78.0381 91.8132 80.0721 90.6432 85.363 91.5325C93.3874 92.882 98.5979 100.932 100.447 115.034C102.494 130.658 98.3068 140.324 94.6242 144.007C90.6954 147.936 85.9958 149.015 85.9958 149.015C85.9958 149.015 91.2407 148.498 97.2783 146.322C124.13 136.641 136.757 124.644 153.594 117.698C170.431 110.753 172.325 112.144 187.268 110.461C189.777 110.178 192.32 109.49 192.32 109.49C192.32 109.49 204.315 102.545 202.843 85.2867C201.37 68.0287 188.742 61.2939 188.742 61.2939C188.742 61.2939 187.713 61.86 184.532 63.0047C167.064 69.2919 154.015 80.0256 142.86 83.6036C131.706 87.1815 110.242 86.7903 90.4549 88.6552C80.7739 89.5675 78.0381 91.8132 78.0381 91.8132Z" fill="url(#paint10_radial_98_3236)"/>
<path d="M101.61 120.752C101.61 109.89 96.5208 88.8731 81.5994 90.608C72.6178 91.6514 67.1577 101.708 64.8177 109.437C63.0368 115.32 62.9988 121.681 63.8525 127.733C63.9514 128.434 64.0653 129.132 64.1965 129.827C64.239 130.055 64.3909 131.038 64.522 131.765C64.5807 132.091 64.8212 132.351 65.141 132.437C65.4919 132.532 65.9612 132.658 66.3524 132.764C66.6883 132.855 67.0024 132.564 66.938 132.222C66.7838 131.405 66.5825 130.227 66.5319 129.934C64.965 120.875 65.5149 111.238 70.0373 103.055C71.6445 100.146 73.7027 97.3094 76.466 95.4019C78.5277 93.9788 81.528 93.1942 84.1131 93.3679C89.8182 93.7499 93.5365 99.9968 95.345 104.814C97.7989 111.352 98.8976 117.798 98.671 124.796C98.4064 132.949 95.146 146.053 85.0266 146.614C82.6866 146.744 80.6905 145.489 79.0638 143.808C76.7042 141.369 75.0625 136.357 74.4228 131.694C73.9189 128.022 74.0167 124.575 74.0927 123.119C74.1111 122.78 73.7705 122.54 73.4565 122.668L72.3037 123.136C71.9942 123.261 71.7906 123.559 71.7883 123.893C71.7779 125.472 71.8159 130.2 72.5499 134.785C73.208 138.894 75.0142 143.107 78.0491 146.068C82.6935 150.6 89.2729 149.364 93.4099 145.896C98.9321 141.266 101.61 131.48 101.61 120.752Z" fill="url(#paint11_radial_98_3236)"/>
<mask id="mask6_98_3236" style="mask-type:luminance" maskUnits="userSpaceOnUse" x="63" y="61" width="140" height="89">
<path d="M202.842 85.2896C201.369 68.0316 188.741 61.2969 188.741 61.2969C188.741 61.2969 187.713 61.8629 184.532 63.0076C167.063 69.2948 154.015 80.0286 142.86 83.6065C131.705 87.1844 110.241 86.7932 90.4556 88.6581C84.3616 89.2322 81.0207 90.3343 79.3813 91.0718C71.7112 93.3566 66.9587 102.369 64.8177 109.441C63.0368 115.323 62.9988 121.684 63.8525 127.737C63.9514 128.437 64.0653 129.136 64.1965 129.831C64.239 130.058 64.3909 131.042 64.522 131.769C64.5807 132.095 64.8212 132.355 65.141 132.441C65.4919 132.535 65.9612 132.662 66.3513 132.768C66.6872 132.859 67.0013 132.568 66.9368 132.226C66.7827 131.409 66.5813 130.231 66.5307 129.938C64.9638 120.879 65.5137 111.242 70.0362 103.058C71.6433 100.15 73.7015 97.313 76.4649 95.4055C78.5265 93.9824 81.5269 93.1978 84.112 93.3715C89.8171 93.7535 93.5353 100 95.3439 104.817C97.7978 111.355 98.8965 117.801 98.6698 124.8C98.4052 132.953 95.1448 146.057 85.0254 146.618C82.6854 146.748 80.6894 145.493 79.0626 143.812C76.703 141.373 75.0613 136.361 74.4217 131.698C73.9178 128.026 74.0156 124.579 74.0915 123.122C74.1099 122.784 73.7694 122.544 73.4553 122.671L72.3026 123.14C71.9931 123.265 71.7895 123.563 71.7871 123.897C71.7768 125.476 71.8148 130.203 72.5487 134.789C73.2068 138.897 75.0142 143.11 78.0479 146.072C80.457 148.422 83.386 149.218 86.2254 148.959C86.0792 148.999 85.9964 149.019 85.9964 149.019C85.9964 149.019 91.2413 148.502 97.2789 146.326C124.131 136.645 136.758 124.648 153.595 117.702C170.432 110.757 172.325 112.148 187.269 110.465C189.778 110.182 192.32 109.494 192.32 109.494C192.32 109.494 204.316 102.548 202.842 85.2896Z" fill="white"/>
</mask>
<g mask="url(#mask6_98_3236)">
<path d="M64.0963 178.91C95.7096 178.91 121.337 153.283 121.337 121.67C121.337 90.0563 95.7096 64.4287 64.0963 64.4287C32.4831 64.4287 6.85547 90.0563 6.85547 121.67C6.85547 153.283 32.4831 178.91 64.0963 178.91Z" fill="url(#paint12_radial_98_3236)"/>
</g>
<mask id="mask7_98_3236" style="mask-type:luminance" maskUnits="userSpaceOnUse" x="63" y="61" width="140" height="89">
<path d="M202.842 85.2896C201.369 68.0316 188.741 61.2969 188.741 61.2969C188.741 61.2969 187.713 61.8629 184.532 63.0076C167.063 69.2948 154.015 80.0286 142.86 83.6065C131.705 87.1844 110.241 86.7932 90.4556 88.6581C84.3616 89.2322 81.0207 90.3343 79.3813 91.0718C71.7112 93.3566 66.9587 102.369 64.8177 109.441C63.0368 115.323 62.9988 121.684 63.8525 127.737C63.9514 128.437 64.0653 129.136 64.1965 129.831C64.239 130.058 64.3909 131.042 64.522 131.769C64.5807 132.095 64.8212 132.355 65.141 132.441C65.4919 132.535 65.9612 132.662 66.3513 132.768C66.6872 132.859 67.0013 132.568 66.9368 132.226C66.7827 131.409 66.5813 130.231 66.5307 129.938C64.9638 120.879 65.5137 111.242 70.0362 103.058C71.6433 100.15 73.7015 97.313 76.4649 95.4055C78.5265 93.9824 81.5269 93.1978 84.112 93.3715C89.8171 93.7535 93.5353 100 95.3439 104.817C97.7978 111.355 98.8965 117.801 98.6698 124.8C98.4052 132.953 95.1448 146.057 85.0254 146.618C82.6854 146.748 80.6894 145.493 79.0626 143.812C76.703 141.373 75.0613 136.361 74.4217 131.698C73.9178 128.026 74.0156 124.579 74.0915 123.122C74.1099 122.784 73.7694 122.544 73.4553 122.671L72.3026 123.14C71.9931 123.265 71.7895 123.563 71.7871 123.897C71.7768 125.476 71.8148 130.203 72.5487 134.789C73.2068 138.897 75.0142 143.11 78.0479 146.072C80.457 148.422 83.386 149.218 86.2254 148.959C86.0792 148.999 85.9964 149.019 85.9964 149.019C85.9964 149.019 91.2413 148.502 97.2789 146.326C124.131 136.645 136.758 124.648 153.595 117.702C170.432 110.757 172.325 112.148 187.269 110.465C189.778 110.182 192.32 109.494 192.32 109.494C192.32 109.494 204.316 102.548 202.842 85.2896Z" fill="white"/>
</mask>
<g mask="url(#mask7_98_3236)">
<path d="M89.235 153.773C120.848 153.773 146.476 128.145 146.476 96.5319C146.476 64.9186 120.848 39.291 89.235 39.291C57.6217 39.291 31.9941 64.9186 31.9941 96.5319C31.9941 128.145 57.6217 153.773 89.235 153.773Z" fill="url(#paint13_radial_98_3236)"/>
</g>
<mask id="mask8_98_3236" style="mask-type:luminance" maskUnits="userSpaceOnUse" x="63" y="61" width="140" height="89">
<path d="M202.842 85.2896C201.369 68.0316 188.741 61.2969 188.741 61.2969C188.741 61.2969 187.713 61.8629 184.532 63.0076C167.063 69.2948 154.015 80.0286 142.86 83.6065C131.705 87.1844 110.241 86.7932 90.4556 88.6581C84.3616 89.2322 81.0207 90.3343 79.3813 91.0718C71.7112 93.3566 66.9587 102.369 64.8177 109.441C63.0368 115.323 62.9988 121.684 63.8525 127.737C63.9514 128.437 64.0653 129.136 64.1965 129.831C64.239 130.058 64.3909 131.042 64.522 131.769C64.5807 132.095 64.8212 132.355 65.141 132.441C65.4919 132.535 65.9612 132.662 66.3513 132.768C66.6872 132.859 67.0013 132.568 66.9368 132.226C66.7827 131.409 66.5813 130.231 66.5307 129.938C64.9638 120.879 65.5137 111.242 70.0362 103.058C71.6433 100.15 73.7015 97.313 76.4649 95.4055C78.5265 93.9824 81.5269 93.1978 84.112 93.3715C89.8171 93.7535 93.5353 100 95.3439 104.817C97.7978 111.355 98.8965 117.801 98.6698 124.8C98.4052 132.953 95.1448 146.057 85.0254 146.618C82.6854 146.748 80.6894 145.493 79.0626 143.812C76.703 141.373 75.0613 136.361 74.4217 131.698C73.9178 128.026 74.0156 124.579 74.0915 123.122C74.1099 122.784 73.7694 122.544 73.4553 122.671L72.3026 123.14C71.9931 123.265 71.7895 123.563 71.7871 123.897C71.7768 125.476 71.8148 130.203 72.5487 134.789C73.2068 138.897 75.0142 143.11 78.0479 146.072C80.457 148.422 83.386 149.218 86.2254 148.959C86.0792 148.999 85.9964 149.019 85.9964 149.019C85.9964 149.019 91.2413 148.502 97.2789 146.326C124.131 136.645 136.758 124.648 153.595 117.702C170.432 110.757 172.325 112.148 187.269 110.465C189.778 110.182 192.32 109.494 192.32 109.494C192.32 109.494 204.316 102.548 202.842 85.2896Z" fill="white"/>
</mask>
<g mask="url(#mask8_98_3236)">
<path d="M83.1439 82.4674C98.7821 83.1335 110.68 101.966 109.719 124.534C108.759 147.101 95.3031 164.855 79.665 164.189C64.0268 163.523 52.1288 144.69 53.0895 122.122C54.0501 99.5551 67.507 81.8013 83.1439 82.4674Z" fill="url(#paint14_radial_98_3236)"/>
</g>
<path d="M165.187 116.454C164.336 116.771 156.258 120.385 153.809 121.236C153.527 121.336 153.266 121.382 153.03 121.382C151.195 121.432 150.567 119.049 150.567 119.049L152.794 117.877C152.794 117.877 152.567 110.481 150.089 103.589C149.949 103.192 149.792 102.789 149.631 102.382C146.504 94.5485 139.823 84.5534 139.823 84.5534L134.191 85.4438C134.191 85.4438 134.091 84.8203 134.1 84.237C134.111 83.5881 134.633 82.8541 136.016 82.3215C137.393 81.7934 145.689 79.4511 147.177 79.2394C148.666 79.0277 151.325 79.4511 152.175 80.5164C153.025 81.5771 162.316 96.1476 164.442 101.145C166.569 106.143 166.353 113.051 166.458 114.222C166.569 115.388 166.036 116.132 165.187 116.454Z" fill="url(#paint15_radial_98_3236)"/>
<path d="M154.482 120C154.266 120.608 153.819 121.166 153.201 121.347C153.145 121.362 153.085 121.377 153.029 121.383C151.194 121.433 150.566 119.049 150.566 119.049L152.793 117.878C152.793 117.878 152.567 110.482 150.089 103.59C149.948 103.193 149.792 102.79 149.631 102.383C149.676 102.323 149.731 102.272 149.797 102.232C150.058 102.066 150.39 102.071 150.692 102.126C151.707 102.307 152.637 102.936 153.175 103.815C154.081 105.283 153.356 106.556 153.523 108.074C153.754 110.185 154.318 112.247 154.509 114.379C154.619 115.611 154.685 116.847 154.695 118.089C154.703 118.733 154.693 119.391 154.482 120Z" fill="url(#paint16_linear_98_3236)"/>
<path d="M168.761 111.808L167.436 112.785C167.296 112.653 164.662 110.14 163.017 108.702C161.32 107.217 159.285 105.91 159.178 105.842L160.503 104.865C160.61 104.934 162.645 106.241 164.342 107.725C165.987 109.163 168.623 111.676 168.761 111.808Z" fill="url(#paint17_linear_98_3236)"/>
<path d="M146.595 92.9017C145.801 91.4498 145.051 90.1993 144.346 89.1213C140.906 83.8706 138.606 82.4187 137.264 82.3486C136.553 82.3117 135.932 82.1311 135.162 82.6051C134.39 83.0791 134.249 83.4553 134.119 84.0432C133.989 84.6311 134.099 85.4605 134.099 85.4605L135.087 85.3018C135.049 84.6299 135.062 83.8108 136.037 83.5347C137.014 83.2586 137.572 83.8188 138.664 84.6311C139.898 85.5503 141.193 87.3128 143.019 90.0992C143.724 91.176 144.475 92.4277 145.268 93.8784C148.101 99.0531 156.345 115.476 156.779 116.341L158.104 115.364C157.67 114.499 149.427 98.0764 146.595 92.9017Z" fill="url(#paint18_linear_98_3236)"/>
<path d="M150.467 78.6635C151.089 78.6957 151.682 78.8659 152.276 79.2824C153.714 80.2925 156.29 82.3955 159.676 88.5873C162.464 93.6838 165.461 99.856 166.585 102.587C167.873 105.726 168.716 111.505 168.761 111.809C168.622 111.677 165.987 109.164 164.342 107.726C162.645 106.241 160.61 104.934 160.503 104.866C160.469 104.979 159.827 107.127 159.424 109.499C159.02 111.876 158.149 115.19 158.103 115.364C157.669 114.5 149.426 98.0762 146.593 92.9015C141.929 84.372 138.667 82.8223 137.878 82.5175C137.127 82.2276 135.387 81.9998 134.428 83.24C134.952 82.4991 135.556 81.4775 138.844 80.5548C139.86 80.2706 145.71 79.3549 147.556 79.0351C148.642 78.8464 149.583 78.6163 150.467 78.6635Z" fill="url(#paint19_linear_98_3236)"/>
<path d="M157.791 105.861C162.944 105.861 167.121 101.683 167.121 96.5304C167.121 91.3775 162.944 87.2002 157.791 87.2002C152.638 87.2002 148.461 91.3775 148.461 96.5304C148.461 101.683 152.638 105.861 157.791 105.861Z" fill="url(#paint20_radial_98_3236)"/>
<path d="M147.223 84.5761C146.582 85.1916 146.029 85.9187 145.724 86.754C145.433 87.5512 145.381 88.4129 145.332 89.2608C145.202 91.4789 145.073 93.728 145.52 95.9047C145.968 98.0813 147.066 100.214 148.919 101.441C150.956 102.789 153.556 102.858 155.999 102.82C159.049 102.773 162.468 102.455 164.444 100.133C165.581 98.7969 166.024 97.0172 166.359 95.2949C166.751 93.2747 166.871 90.7863 165.201 89.5829C164.502 89.0779 163.593 88.9065 162.935 88.3496C162.278 87.794 161.967 86.9438 161.533 86.2006C158.858 81.6287 150.887 81.0558 147.223 84.5761Z" fill="url(#paint21_radial_98_3236)"/>
<path d="M147.223 84.5761C146.582 85.1916 146.029 85.9187 145.724 86.754C145.433 87.5512 145.381 88.4129 145.332 89.2608C145.202 91.4789 145.073 93.728 145.52 95.9047C145.968 98.0813 147.066 100.214 148.919 101.441C150.956 102.789 153.556 102.858 155.999 102.82C159.049 102.773 162.468 102.455 164.444 100.133C165.581 98.7969 166.024 97.0172 166.359 95.2949C166.751 93.2747 166.871 90.7863 165.201 89.5829C164.502 89.0779 163.593 88.9065 162.935 88.3496C162.278 87.794 161.967 86.9438 161.533 86.2006C158.858 81.6287 150.887 81.0558 147.223 84.5761Z" fill="url(#paint22_radial_98_3236)"/>
<path d="M162.291 90.0359C163.815 93.7128 162.304 97.8337 158.914 99.2384C155.525 100.644 151.541 98.8024 150.016 95.1255C148.491 91.4487 150.003 87.3277 153.392 85.923C156.783 84.5172 160.767 86.3591 162.291 90.0359Z" fill="url(#paint23_linear_98_3236)"/>
<path d="M161.765 90.2537C163.024 93.2909 161.775 96.6951 158.975 97.8559C156.175 99.0167 152.884 97.4958 151.625 94.4586C150.365 91.4214 151.614 88.0172 154.414 86.8564C157.215 85.6956 160.506 87.2165 161.765 90.2537Z" fill="url(#paint24_linear_98_3236)"/>
<defs>
<linearGradient id="paint0_linear_98_3236" x1="2.14062" y1="35.3014" x2="23.1353" y2="33.5518" gradientUnits="userSpaceOnUse">
<stop stop-color="#EFAB26"/>
<stop offset="0.1294" stop-color="#ECA526"/>
<stop offset="0.299" stop-color="#E49524"/>
<stop offset="0.4173" stop-color="#DD8523"/>
<stop offset="0.6345" stop-color="#DE8823"/>
<stop offset="0.7847" stop-color="#E39124"/>
<stop offset="0.9143" stop-color="#EAA025"/>
<stop offset="0.9786" stop-color="#EFAB26"/>
</linearGradient>
<radialGradient id="paint1_radial_98_3236" cx="0" cy="0" r="1" gradientUnits="userSpaceOnUse" gradientTransform="translate(41.6222 11.6028) rotate(26.296) scale(39.1803)">
<stop offset="0.7941" stop-color="#C46700"/>
<stop offset="0.9876" stop-color="#C46700"/>
</radialGradient>
<radialGradient id="paint2_radial_98_3236" cx="0" cy="0" r="1" gradientUnits="userSpaceOnUse" gradientTransform="translate(1.91897 9.18446) rotate(6.60909) scale(17.3627 17.3627)">
<stop offset="0.0611" stop-color="#FFFDA6"/>
<stop offset="1" stop-color="#FFFDA6"/>
</radialGradient>
<radialGradient id="paint3_radial_98_3236" cx="0" cy="0" r="1" gradientUnits="userSpaceOnUse" gradientTransform="translate(-23.1938 96.6524) scale(55.2422 55.2422)">
<stop offset="0.4469" stop-color="#EFAB26"/>
<stop offset="0.4516" stop-color="#EFAF2C"/>
<stop offset="0.4858" stop-color="#F2CB57"/>
<stop offset="0.5126" stop-color="#F4DC71"/>
<stop offset="0.5286" stop-color="#F5E37B"/>
<stop offset="0.5971" stop-color="#F2CA55"/>
<stop offset="0.6692" stop-color="#F0B333"/>
<stop offset="0.7084" stop-color="#EFAB26"/>
<stop offset="0.7484" stop-color="#ECA526"/>
<stop offset="0.8008" stop-color="#E49524"/>
<stop offset="0.8373" stop-color="#DD8523"/>
<stop offset="0.8845" stop-color="#DE8823"/>
<stop offset="0.9171" stop-color="#E39124"/>
<stop offset="0.9453" stop-color="#EAA025"/>
<stop offset="0.9592" stop-color="#EFAB26"/>
</radialGradient>
<linearGradient id="paint4_linear_98_3236" x1="24.1059" y1="78.4387" x2="16.8639" y2="81.4325" gradientUnits="userSpaceOnUse">
<stop stop-color="#C46700"/>
<stop offset="0.8587" stop-color="#C46700"/>
<stop offset="1" stop-color="#C46700"/>
</linearGradient>
<linearGradient id="paint5_linear_98_3236" x1="5.65854" y1="84.9674" x2="13.5186" y2="84.2645" gradientUnits="userSpaceOnUse">
<stop offset="0.1337" stop-color="#E09003"/>
<stop offset="1" stop-color="#E09003"/>
</linearGradient>
<radialGradient id="paint6_radial_98_3236" cx="0" cy="0" r="1" gradientUnits="userSpaceOnUse" gradientTransform="translate(4.62831 57.5376) scale(14.9822 14.9822)">
<stop stop-color="#EFAB26"/>
<stop offset="0.2433" stop-color="#ECA526"/>
<stop offset="0.5622" stop-color="#E49524"/>
<stop offset="0.7846" stop-color="#DD8523"/>
<stop offset="0.8597" stop-color="#DE8823"/>
<stop offset="0.9116" stop-color="#E39124"/>
<stop offset="0.9564" stop-color="#EAA025"/>
<stop offset="0.9786" stop-color="#EFAB26"/>
</radialGradient>
<linearGradient id="paint7_linear_98_3236" x1="96.0036" y1="94.2795" x2="103.026" y2="123.773" gradientUnits="userSpaceOnUse">
<stop stop-color="#717F82"/>
<stop offset="0.631" stop-color="#98ABAE"/>
<stop offset="1" stop-color="#ABC0C3"/>
</linearGradient>
<linearGradient id="paint8_linear_98_3236" x1="94.3653" y1="96.2452" x2="110.293" y2="148.908" gradientUnits="userSpaceOnUse">
<stop stop-color="#717F82"/>
<stop offset="0.631" stop-color="#98ABAE"/>
<stop offset="1" stop-color="#ABC0C3"/>
</linearGradient>
<radialGradient id="paint9_radial_98_3236" cx="0" cy="0" r="1" gradientUnits="userSpaceOnUse" gradientTransform="translate(103.497 -51.2899) scale(160.603 160.603)">
<stop offset="0.8627" stop-color="#ECFCFF"/>
<stop offset="0.9269" stop-color="#BED8D9"/>
<stop offset="0.9821" stop-color="#A6BBBE"/>
</radialGradient>
<radialGradient id="paint10_radial_98_3236" cx="0" cy="0" r="1" gradientUnits="userSpaceOnUse" gradientTransform="translate(197.399 240.108) scale(165.109 165.109)">
<stop offset="0.7592" stop-color="#717F82"/>
<stop offset="0.7752" stop-color="#8D9B9E"/>
<stop offset="0.7962" stop-color="#AAB8BB"/>
<stop offset="0.8186" stop-color="#C0CED1"/>
<stop offset="0.8427" stop-color="#D0DEE1"/>
<stop offset="0.8699" stop-color="#DAE8EB"/>
<stop offset="0.9062" stop-color="#DDEBEE"/>
</radialGradient>
<radialGradient id="paint11_radial_98_3236" cx="0" cy="0" r="1" gradientUnits="userSpaceOnUse" gradientTransform="translate(88.5913 127.38) scale(51.9398 51.9398)">
<stop stop-color="#A6BBBE"/>
<stop offset="0.025" stop-color="#AABEC1"/>
<stop offset="0.2036" stop-color="#C0D2D5"/>
<stop offset="0.3972" stop-color="#D0E0E3"/>
<stop offset="0.6148" stop-color="#DAE8EB"/>
<stop offset="0.9062" stop-color="#DDEBEE"/>
</radialGradient>
<radialGradient id="paint12_radial_98_3236" cx="0" cy="0" r="1" gradientUnits="userSpaceOnUse" gradientTransform="translate(64.096 121.669) scale(57.241 57.2411)">
<stop offset="0.0389" stop-color="#ABC0C3"/>
<stop offset="0.0956" stop-color="#ABC0C3"/>
<stop offset="0.5699" stop-color="#ABC0C3"/>
</radialGradient>
<radialGradient id="paint13_radial_98_3236" cx="0" cy="0" r="1" gradientUnits="userSpaceOnUse" gradientTransform="translate(89.2346 96.5314) scale(57.241)">
<stop offset="0.0389" stop-color="#F3F8FB"/>
<stop offset="0.1439" stop-color="#EAF2F5"/>
<stop offset="0.3259" stop-color="#E0EDF0"/>
<stop offset="0.5699" stop-color="#DDEBEE"/>
</radialGradient>
<radialGradient id="paint14_radial_98_3236" cx="0" cy="0" r="1" gradientUnits="userSpaceOnUse" gradientTransform="translate(81.4046 123.328) rotate(-87.5635) scale(40.8955 28.3422)">
<stop offset="0.2096" stop-color="#DAE9EC"/>
<stop offset="0.4704" stop-color="#E6F0F3"/>
<stop offset="0.6893" stop-color="#F3F8FB"/>
<stop offset="0.7091" stop-color="#F3F8FB"/>
<stop offset="1" stop-color="#F3F8FB"/>
</radialGradient>
<radialGradient id="paint15_radial_98_3236" cx="0" cy="0" r="1" gradientUnits="userSpaceOnUse" gradientTransform="translate(142.3 80.6571) scale(45.9863 45.9863)">
<stop stop-color="#E09003"/>
<stop offset="0.7321" stop-color="#E09003"/>
<stop offset="0.8224" stop-color="#CE7501"/>
<stop offset="0.8638" stop-color="#C46700"/>
<stop offset="0.8848" stop-color="#C66A02"/>
<stop offset="0.8993" stop-color="#CC7307"/>
<stop offset="0.9118" stop-color="#D5820F"/>
<stop offset="0.9231" stop-color="#E3981B"/>
<stop offset="0.9307" stop-color="#EFAB26"/>
</radialGradient>
<linearGradient id="paint16_linear_98_3236" x1="147.708" y1="112.476" x2="154.127" y2="111.266" gradientUnits="userSpaceOnUse">
<stop offset="0.5398" stop-color="#C46700"/>
<stop offset="1" stop-color="#DD8523"/>
</linearGradient>
<linearGradient id="paint17_linear_98_3236" x1="162.26" y1="110.769" x2="164.943" y2="107.718" gradientUnits="userSpaceOnUse">
<stop stop-color="#EFAB26"/>
<stop offset="0.3963" stop-color="#C46700"/>
<stop offset="0.7744" stop-color="#E09419"/>
<stop offset="0.9541" stop-color="#EFAB26"/>
</linearGradient>
<linearGradient id="paint18_linear_98_3236" x1="142.545" y1="101.369" x2="149.577" y2="97.4737" gradientUnits="userSpaceOnUse">
<stop stop-color="#EFAB26"/>
<stop offset="0.3963" stop-color="#C46700"/>
<stop offset="0.7744" stop-color="#E09419"/>
<stop offset="0.9541" stop-color="#EFAB26"/>
</linearGradient>
<linearGradient id="paint19_linear_98_3236" x1="143.716" y1="79.257" x2="160.881" y2="113.024" gradientUnits="userSpaceOnUse">
<stop stop-color="#EFAB26"/>
<stop offset="0.0105" stop-color="#EFAF2C"/>
<stop offset="0.088" stop-color="#F2CB57"/>
<stop offset="0.1487" stop-color="#F4DC71"/>
<stop offset="0.1847" stop-color="#F5E37B"/>
<stop offset="0.242" stop-color="#ECCD66"/>
<stop offset="0.4023" stop-color="#D7962F"/>
<stop offset="0.522" stop-color="#C9740D"/>
<stop offset="0.5867" stop-color="#C46700"/>
<stop offset="0.6005" stop-color="#C97107"/>
<stop offset="0.6647" stop-color="#DC9B22"/>
<stop offset="0.7229" stop-color="#EAB936"/>
<stop offset="0.7725" stop-color="#F3CB42"/>
<stop offset="0.8077" stop-color="#F6D246"/>
<stop offset="0.894" stop-color="#F3C33A"/>
<stop offset="1" stop-color="#EFAB26"/>
</linearGradient>
<radialGradient id="paint20_radial_98_3236" cx="0" cy="0" r="1" gradientUnits="userSpaceOnUse" gradientTransform="translate(157.791 96.5299) scale(9.32961 9.32961)">
<stop offset="0.4897" stop-color="#C46700"/>
<stop offset="0.8807" stop-color="#C46700"/>
</radialGradient>
<radialGradient id="paint21_radial_98_3236" cx="0" cy="0" r="1" gradientUnits="userSpaceOnUse" gradientTransform="translate(156.275 92.4216) scale(13.0327 13.0327)">
<stop offset="0.5435" stop-color="#C40000"/>
<stop offset="0.6059" stop-color="#D6232A"/>
<stop offset="0.679" stop-color="#E74754"/>
<stop offset="0.7451" stop-color="#F46173"/>
<stop offset="0.8013" stop-color="#FC7085"/>
<stop offset="0.8409" stop-color="#FF768C"/>
<stop offset="0.8764" stop-color="#FB6D83"/>
<stop offset="0.9351" stop-color="#EF5669"/>
<stop offset="0.9458" stop-color="#ED5164"/>
</radialGradient>
<radialGradient id="paint22_radial_98_3236" cx="0" cy="0" r="1" gradientUnits="userSpaceOnUse" gradientTransform="translate(155.538 92.632) scale(13.0327 13.0327)">
<stop offset="0.6363" stop-color="#C40000"/>
<stop offset="0.9028" stop-color="#C40000"/>
</radialGradient>
<linearGradient id="paint23_linear_98_3236" x1="162.245" y1="95.9436" x2="147.267" y2="87.6743" gradientUnits="userSpaceOnUse">
<stop stop-color="#E43E4F"/>
<stop offset="0.2599" stop-color="#E33B4C"/>
<stop offset="0.4729" stop-color="#DF3342"/>
<stop offset="0.6694" stop-color="#D82630"/>
<stop offset="0.8548" stop-color="#CE1319"/>
<stop offset="1" stop-color="#C40000"/>
</linearGradient>
<linearGradient id="paint24_linear_98_3236" x1="163.964" y1="93.1034" x2="151.78" y2="91.8508" gradientUnits="userSpaceOnUse">
<stop offset="0.1987" stop-color="#E43E4F"/>
<stop offset="0.3606" stop-color="#E03746"/>
<stop offset="0.6267" stop-color="#D6232D"/>
<stop offset="0.9624" stop-color="#C60405"/>
<stop offset="1" stop-color="#C40000"/>
</linearGradient>
</defs>
</svg>
