<svg width="19" height="19" viewBox="0 0 19 19" fill="none" xmlns="http://www.w3.org/2000/svg">
<path d="M3.01562 4.74967H4.51562M4.51562 4.74967H16.5156M4.51562 4.74967V15.833C4.51563 16.2529 4.67366 16.6557 4.95496 16.9526C5.23627 17.2495 5.6178 17.4163 6.01562 17.4163H13.5156C13.9134 17.4163 14.295 17.2495 14.5763 16.9526C14.8576 16.6557 15.0156 16.2529 15.0156 15.833V4.74967M6.76562 4.74967V3.16634C6.76562 2.74641 6.92366 2.34369 7.20497 2.04676C7.48627 1.74982 7.8678 1.58301 8.26562 1.58301H11.2656C11.6634 1.58301 12.045 1.74982 12.3263 2.04676C12.6076 2.34369 12.7656 2.74641 12.7656 3.16634V4.74967" stroke="#AC0606" stroke-width="1.5" stroke-linecap="round" stroke-linejoin="round"/>
</svg>
