<svg width="18" height="19" viewBox="0 0 18 19" fill="none" xmlns="http://www.w3.org/2000/svg">
<path d="M2.25 4.74967H3.75M3.75 4.74967H15.75M3.75 4.74967V15.833C3.75 16.2529 3.90804 16.6557 4.18934 16.9526C4.47064 17.2495 4.85218 17.4163 5.25 17.4163H12.75C13.1478 17.4163 13.5294 17.2495 13.8107 16.9526C14.092 16.6557 14.25 16.2529 14.25 15.833V4.74967M6 4.74967V3.16634C6 2.74641 6.15804 2.34369 6.43934 2.04676C6.72064 1.74982 7.10218 1.58301 7.5 1.58301H10.5C10.8978 1.58301 11.2794 1.74982 11.5607 2.04676C11.842 2.34369 12 2.74641 12 3.16634V4.74967" stroke="#AC0606" stroke-width="1.5" stroke-linecap="round" stroke-linejoin="round"/>
</svg>
