<svg width="5" height="20" viewBox="0 0 5 20" fill="none" xmlns="http://www.w3.org/2000/svg">
<path d="M2.41271 4.5833C3.56117 4.5833 4.49218 3.5573 4.49218 2.29165C4.49218 1.02601 3.56117 0 2.41271 0C1.26426 0 0.333252 1.02601 0.333252 2.29165C0.333252 3.5573 1.26426 4.5833 2.41271 4.5833Z" fill="#00C568"/>
<path d="M2.41271 12.1663C3.56117 12.1663 4.49218 11.1403 4.49218 9.87466C4.49218 8.60902 3.56117 7.58301 2.41271 7.58301C1.26426 7.58301 0.333252 8.60902 0.333252 9.87466C0.333252 11.1403 1.26426 12.1663 2.41271 12.1663Z" fill="#00C568"/>
<path d="M2.41271 19.7503C3.56117 19.7503 4.49218 18.7243 4.49218 17.4586C4.49218 16.193 3.56117 15.167 2.41271 15.167C1.26426 15.167 0.333252 16.193 0.333252 17.4586C0.333252 18.7243 1.26426 19.7503 2.41271 19.7503Z" fill="#00C568"/>
</svg>
