<svg width="18" height="20" viewBox="0 0 18 20" fill="none" xmlns="http://www.w3.org/2000/svg">
<path d="M8.25 3.66668H3C2.60218 3.66668 2.22064 3.8335 1.93934 4.13043C1.65804 4.42736 1.5 4.83009 1.5 5.25002V16.3333C1.5 16.7533 1.65804 17.156 1.93934 17.4529C2.22064 17.7499 2.60218 17.9167 3 17.9167H13.5C13.8978 17.9167 14.2794 17.7499 14.5607 17.4529C14.842 17.156 15 16.7533 15 16.3333V10.7917M13.875 2.47918C14.1734 2.16424 14.578 1.9873 15 1.9873C15.422 1.9873 15.8266 2.16424 16.125 2.47918C16.4234 2.79413 16.591 3.22128 16.591 3.66668C16.591 4.11208 16.4234 4.53924 16.125 4.85418L9 12.375L6 13.1667L6.75 10L13.875 2.47918Z" stroke="#232420" stroke-width="1.5" stroke-linecap="round" stroke-linejoin="round"/>
</svg>
