<svg width="22" height="16" viewBox="0 0 22 16" fill="none" xmlns="http://www.w3.org/2000/svg">
<path d="M19.0001 0H3.00012C2.20447 0 1.44141 0.316071 0.878802 0.87868C0.316193 1.44129 0.00012207 2.20435 0.00012207 3V13C0.00012207 13.7956 0.316193 14.5587 0.878802 15.1213C1.44141 15.6839 2.20447 16 3.00012 16H19.0001C19.7958 16 20.5588 15.6839 21.1214 15.1213C21.6841 14.5587 22.0001 13.7956 22.0001 13V3C22.0001 2.20435 21.6841 1.44129 21.1214 0.87868C20.5588 0.316071 19.7958 0 19.0001 0ZM20.0001 12.75L15.1001 8.35L20.0001 4.92V12.75ZM2.00012 4.92L6.90012 8.35L2.00012 12.75V4.92ZM8.58012 9.53L10.4301 10.82C10.5975 10.9361 10.7964 10.9984 11.0001 10.9984C11.2039 10.9984 11.4027 10.9361 11.5701 10.82L13.4201 9.53L18.4201 14H3.60012L8.58012 9.53ZM3.00012 2H19.0001C19.1858 2.00149 19.3675 2.05467 19.5247 2.15358C19.6819 2.25249 19.8084 2.39322 19.8901 2.56L11.0001 8.78L2.11012 2.56C2.19183 2.39322 2.31838 2.25249 2.47557 2.15358C2.63277 2.05467 2.8144 2.00149 3.00012 2Z" fill="#009E52"/>
</svg>
