<svg width="24" height="25" viewBox="0 0 24 25" fill="none" xmlns="http://www.w3.org/2000/svg">
<g clip-path="url(#clip0_98_3307)">
<path d="M12 23.7031C18.2132 23.7031 23.25 18.6663 23.25 12.4531C23.25 6.23992 18.2132 1.20312 12 1.20312C5.7868 1.20312 0.75 6.23992 0.75 12.4531C0.75 18.6663 5.7868 23.7031 12 23.7031Z" fill="#00C568" fill-opacity="0.1"/>
<path d="M7.77982 10.1112L11.0108 14.6723C11.4258 15.2581 12.1673 15.3098 12.7119 14.7909L22.8119 5.16495" stroke="#00C568" stroke-width="1.5" stroke-linecap="round"/>
<path d="M23.25 12.4531C23.25 14.8038 22.5137 17.0953 21.1445 19.006C19.7754 20.9168 17.842 22.3505 15.6163 23.1061C13.3904 23.8616 10.9838 23.901 8.7343 23.2188C6.4849 22.5364 4.50574 21.1665 3.07478 19.3018C1.64381 17.4369 0.832939 15.1706 0.756026 12.8213C0.679114 10.4719 1.34004 8.15743 2.64596 6.20297C3.9519 4.2485 5.83724 2.75219 8.03719 1.92419C10.2371 1.09618 12.6413 0.978078 14.9118 1.58647" stroke="#00C568" stroke-linecap="round"/>
</g>
<defs>
<clipPath id="clip0_98_3307">
<rect width="24" height="24" fill="white" transform="translate(0 0.453125)"/>
</clipPath>
</defs>
</svg>
