<svg width="160" height="160" viewBox="0 0 160 160" fill="none" xmlns="http://www.w3.org/2000/svg">
<rect width="160" height="160" rx="80" fill="#2C2C2C"/>
<path d="M67.3329 82.5398V76.0909H69.0091V87H67.3329V85.1534H67.2193C66.9636 85.7074 66.5659 86.1785 66.0261 86.5668C65.4863 86.9503 64.8045 87.142 63.9806 87.142C63.2988 87.142 62.6928 86.9929 62.1625 86.6946C61.6322 86.3916 61.2155 85.937 60.9125 85.331C60.6094 84.7202 60.4579 83.9508 60.4579 83.0227V76.0909H62.1341V82.9091C62.1341 83.7045 62.3566 84.339 62.8017 84.8125C63.2515 85.286 63.8244 85.5227 64.5204 85.5227C64.9371 85.5227 65.3609 85.4162 65.7917 85.2031C66.2273 84.9901 66.5919 84.6634 66.8855 84.223C67.1838 83.7827 67.3329 83.2216 67.3329 82.5398ZM79.8063 78.5341L78.3006 78.9602C78.2059 78.7093 78.0662 78.4654 77.8816 78.2287C77.7016 77.9872 77.4554 77.7884 77.1429 77.6321C76.8304 77.4759 76.4303 77.3977 75.9426 77.3977C75.275 77.3977 74.7187 77.5516 74.2736 77.8594C73.8333 78.1624 73.6131 78.5483 73.6131 79.017C73.6131 79.4337 73.7646 79.7628 74.0676 80.0043C74.3707 80.2457 74.8442 80.447 75.4881 80.608L77.1074 81.0057C78.0828 81.2424 78.8096 81.6046 79.2878 82.0923C79.766 82.5753 80.0051 83.1979 80.0051 83.9602C80.0051 84.5852 79.8252 85.1439 79.4654 85.6364C79.1103 86.1288 78.6131 86.517 77.9739 86.8011C77.3347 87.0852 76.5913 87.2273 75.7438 87.2273C74.6311 87.2273 73.7102 86.9858 72.981 86.5028C72.2518 86.0199 71.7902 85.3144 71.5961 84.3864L73.187 83.9886C73.3385 84.5758 73.6249 85.0161 74.0463 85.3097C74.4725 85.6032 75.0288 85.75 75.7154 85.75C76.4966 85.75 77.1169 85.5843 77.5762 85.2528C78.0402 84.9167 78.2722 84.5142 78.2722 84.0455C78.2722 83.6667 78.1396 83.3494 77.8745 83.0938C77.6093 82.8333 77.2021 82.6392 76.6529 82.5114L74.8347 82.0852C73.8356 81.8485 73.1017 81.4815 72.633 80.9844C72.169 80.4825 71.937 79.8551 71.937 79.1023C71.937 78.4867 72.1098 77.9422 72.4554 77.4688C72.8058 76.9953 73.2817 76.6236 73.883 76.3537C74.4891 76.0838 75.1756 75.9489 75.9426 75.9489C77.0222 75.9489 77.8697 76.1856 78.4853 76.6591C79.1055 77.1326 79.5459 77.7576 79.8063 78.5341ZM87.1021 87.2273C86.051 87.2273 85.1442 86.9953 84.3819 86.5312C83.6243 86.0625 83.0396 85.4091 82.6277 84.571C82.2205 83.7282 82.0169 82.7481 82.0169 81.6307C82.0169 80.5133 82.2205 79.5284 82.6277 78.6761C83.0396 77.8191 83.6125 77.1515 84.3464 76.6733C85.085 76.1903 85.9468 75.9489 86.9316 75.9489C87.4998 75.9489 88.0609 76.0436 88.6149 76.233C89.1689 76.4223 89.6731 76.7301 90.1277 77.1562C90.5822 77.5777 90.9444 78.1364 91.2143 78.8324C91.4842 79.5284 91.6191 80.3854 91.6191 81.4034V82.1136H83.21V80.6648H89.9146C89.9146 80.0492 89.7915 79.5 89.5453 79.017C89.3038 78.5341 88.9582 78.1529 88.5083 77.8736C88.0633 77.5942 87.5377 77.4545 86.9316 77.4545C86.264 77.4545 85.6864 77.6203 85.1987 77.9517C84.7157 78.2784 84.344 78.7045 84.0836 79.2301C83.8232 79.7557 83.693 80.3191 83.693 80.9205V81.8864C83.693 82.7102 83.835 83.4086 84.1191 83.9815C84.408 84.5497 84.8081 84.983 85.3194 85.2812C85.8308 85.5748 86.425 85.7216 87.1021 85.7216C87.5424 85.7216 87.9402 85.66 88.2953 85.5369C88.6551 85.4091 88.9653 85.2197 89.2257 84.9688C89.4861 84.7131 89.6873 84.3958 89.8294 84.017L91.4487 84.4716C91.2782 85.0208 90.9918 85.5038 90.5893 85.9205C90.1868 86.3324 89.6897 86.6544 89.0978 86.8864C88.506 87.1136 87.8407 87.2273 87.1021 87.2273ZM94.1689 87V76.0909H95.7882V77.7386H95.9018C96.1007 77.1989 96.4605 76.7609 96.9814 76.4247C97.5022 76.0885 98.0893 75.9205 98.7427 75.9205C98.8658 75.9205 99.0197 75.9228 99.2044 75.9276C99.389 75.9323 99.5287 75.9394 99.6234 75.9489V77.6534C99.5666 77.6392 99.4364 77.6179 99.2328 77.5895C99.0339 77.5563 98.8232 77.5398 98.6007 77.5398C98.0704 77.5398 97.5969 77.651 97.1802 77.8736C96.7683 78.0914 96.4416 78.3944 96.2001 78.7827C95.9634 79.1662 95.845 79.6042 95.845 80.0966V87H94.1689Z" fill="#F5F5F5"/>
</svg>
